<?xml version="1.0" standalone="no"?>
<!DOCTYPE svg PUBLIC "-//W3C//DTD SVG 20010904//EN"
 "http://www.w3.org/TR/2001/REC-SVG-20010904/DTD/svg10.dtd">
<svg version="1.0" xmlns="http://www.w3.org/2000/svg"
 width="700.000000pt" height="700.000000pt" viewBox="0 0 700.000000 700.000000"
 preserveAspectRatio="xMidYMid meet">
<metadata>
Created by potrace 1.14, written by Peter Selinger 2001-2017
</metadata>
<g transform="translate(0.000000,700.000000) scale(0.100000,-0.100000)"
fill="#000000" stroke="none">
<path d="M1275 5001 c-17 -4 -38 -12 -47 -17 -45 -25 -496 -417 -506 -439 -8
-18 -12 -112 -12 -301 0 -225 3 -282 15 -308 29 -60 33 -61 345 -66 l285 -5 5
-895 c4 -701 8 -900 18 -917 7 -13 27 -31 45 -40 29 -16 66 -18 367 -18 184 0
347 3 362 8 35 9 518 410 538 446 13 22 16 128 20 721 l5 695 51 6 c29 4 58
10 65 15 49 29 494 412 510 437 17 30 19 53 19 305 0 304 -4 327 -62 359 -31
17 -87 18 -1013 20 -539 0 -994 -2 -1010 -6z m2017 -60 l33 -29 3 -266 c3
-291 -1 -321 -54 -345 -17 -7 -118 -11 -309 -11 l-285 0 0 -889 c0 -624 -3
-897 -11 -920 -21 -59 -32 -61 -414 -61 l-347 0 -29 29 -29 29 0 906 0 906
-294 0 -295 0 -28 24 -28 24 -3 279 c-2 299 0 316 48 340 20 10 241 13 1017
13 l993 0 32 -29z"/>
<path d="M1520 4635 c0 -13 49 -15 363 -17 l362 -3 3 -937 c2 -825 4 -938 17
-938 13 0 15 113 15 940 l0 940 365 0 c318 0 365 2 365 15 0 13 -89 15 -745
15 -653 0 -745 -2 -745 -15z"/>
<path d="M4194 4996 c-51 -16 -510 -400 -536 -449 -16 -28 -18 -63 -18 -300 0
-285 4 -311 50 -352 21 -19 40 -20 309 -25 l286 -5 5 -895 c5 -977 1 -918 64
-956 29 -18 57 -19 376 -19 292 0 349 2 373 15 15 9 137 107 272 219 166 139
248 213 257 234 10 25 14 181 16 720 l3 687 32 0 c18 0 43 3 56 7 40 10 513
409 536 451 19 34 20 56 20 307 0 301 -3 317 -68 352 -30 17 -96 18 -1012 20
-780 1 -988 -1 -1021 -11z m2028 -55 l33 -29 3 -271 c3 -295 -1 -321 -54 -341
-14 -6 -153 -10 -310 -10 l-284 0 0 -895 c0 -962 1 -938 -49 -965 -13 -6 -149
-10 -370 -10 l-350 0 -28 24 -28 24 -3 911 -2 911 -285 0 c-156 0 -295 4 -309
10 -51 19 -56 46 -56 323 0 160 4 266 11 286 22 63 -33 60 1056 61 l993 0 32
-29z"/>
<path d="M4450 4635 c0 -13 47 -15 365 -15 l365 0 0 -940 c0 -829 2 -940 15
-940 13 0 15 111 15 940 l0 940 365 0 c318 0 365 2 365 15 0 13 -89 15 -745
15 -656 0 -745 -2 -745 -15z"/>
</g>
</svg>
